<svg width="20" height="20" viewBox="0 0 20 20" fill="none" xmlns="http://www.w3.org/2000/svg">
<path d="M11.3724 9.68678C11.5634 9.44513 11.84 9.26949 12.1669 9.21046C12.4941 9.15144 12.8146 9.21962 13.0781 9.37935C12.9914 9.35454 12.9025 9.3355 12.8121 9.32274C12.7664 9.58607 12.5616 9.80507 12.2833 9.85518C12.005 9.9053 11.7364 9.77158 11.6015 9.54077C11.5213 9.58414 11.4446 9.63305 11.3721 9.68654L11.3724 9.68678Z" fill="white"/>
<path d="M8.59351 9.68678C8.40245 9.44513 8.12587 9.26949 7.79893 9.21046C7.47175 9.15144 7.15132 9.21962 6.88775 9.37935C6.97448 9.35454 7.06338 9.3355 7.15373 9.32274C7.19951 9.58607 7.40429 9.80507 7.68256 9.85518C7.96083 9.9053 8.22947 9.77158 8.36439 9.54077C8.44462 9.58414 8.52123 9.63305 8.59375 9.68654L8.59351 9.68678Z" fill="white"/>
<path d="M9.98904 13.7877C10.0435 13.7877 10.0982 13.7752 10.1478 13.7503L10.2731 13.6877H10.7504L10.9062 13.502H10.2292L10.0647 13.5841C10.0172 13.6077 9.96085 13.6077 9.91339 13.5841L9.74884 13.502H9.07183L9.22771 13.6877H9.70499L9.83027 13.7503C9.8799 13.7752 9.93435 13.7877 9.98904 13.7877Z" fill="white"/>
<path d="M6.93883 12.8085C6.82198 12.5628 6.71573 12.311 6.62081 12.0537H6.62008C6.40036 11.4581 6.24062 10.8339 6.14835 10.188H6.14859C6.58973 10.5255 7.14145 10.7262 7.73991 10.7262C8.27164 10.7262 8.76602 10.5677 9.17921 10.2957L9.17078 10.281C9.03971 10.0545 8.97032 9.79549 8.97032 9.5324C8.97032 9.26931 9.03947 9.01056 9.17053 8.78408L9.19053 8.74963L6.43529 6.257L7.50404 5.67637L7.00677 4.80542L8.41186 4L9.04453 5.96524L9.98631 6.4377L10.9281 5.96524L11.561 4L12.9663 4.80566L12.4691 5.67661L10.8532 8.50678L12.6647 6.32735L12.4693 5.67661L13.5381 6.25724L10.7828 8.74987L10.8028 8.78432C10.9339 9.0108 11.003 9.26955 11.003 9.53264C11.003 9.79574 10.9336 10.0545 10.8026 10.2812L10.7941 10.2957C11.2073 10.5677 11.7017 10.7262 12.2334 10.7262C12.8319 10.7262 13.3836 10.5257 13.825 10.188C13.7325 10.8339 13.573 11.4581 13.3533 12.0532L13.3525 12.0537C13.2576 12.311 13.1514 12.5628 13.0345 12.8085C13.0345 14.0295 13.8698 15.0556 15 15.3467C14.7906 15.4007 14.5712 15.4293 14.3449 15.4293C13.4376 15.4293 12.6382 14.968 12.1679 14.2673C11.7848 14.7942 11.3468 15.279 10.8626 15.7127C10.3641 16.1591 9.60999 16.1591 9.11151 15.7127C8.62724 15.279 8.18924 14.7942 7.80617 14.2673C7.33588 14.968 6.53648 15.4293 5.62915 15.4293C5.40292 15.4293 5.18344 15.4007 4.97407 15.3467C6.1045 15.0556 6.93955 14.0298 6.93955 12.8085H6.93883ZM5.73034 15.2349C6.50131 15.0026 7.12242 14.4249 7.4137 13.6814C7.3048 13.5048 7.20168 13.3241 7.10483 13.1398C7.00051 14.023 6.48444 14.7964 5.73034 15.2349V15.2349ZM7.50404 5.67661L7.30865 6.32735L9.11994 8.50678L7.50404 5.67661ZM13.2049 11.9178C13.3619 11.4808 13.4851 11.0305 13.5723 10.5732C13.1641 10.7958 12.7083 10.9119 12.2334 10.9119C11.6147 10.9119 11.0286 10.7146 10.5376 10.3414C10.5759 10.2928 10.6108 10.2412 10.6419 10.1872V10.1877C10.7534 9.99498 10.8173 9.7714 10.8173 9.53264C10.8173 9.29388 10.7534 9.07006 10.6419 8.87732L11.2904 5.78382L9.98704 6.90293L8.68338 5.78382L9.33196 8.87756C9.22041 9.0703 9.15656 9.29413 9.15656 9.53288C9.15656 9.77164 9.22041 9.99546 9.33196 10.1882V10.1877C9.36328 10.2417 9.39821 10.293 9.43652 10.3417C8.94551 10.7146 8.35933 10.9119 7.74039 10.9119C7.26553 10.9119 6.80969 10.7958 6.40156 10.573C6.48902 11.0302 6.61213 11.4808 6.76898 11.9176C7.78015 12.3855 8.86239 12.6225 9.98704 12.6225C11.1117 12.6225 12.1939 12.3855 13.2051 11.9176L13.2049 11.9178ZM12.8685 13.1398C12.7717 13.3241 12.6683 13.5048 12.5597 13.6814C12.8509 14.4249 13.472 15.0026 14.243 15.2349C13.4889 14.7964 12.9728 14.023 12.8685 13.1398V13.1398ZM9.18379 15.2156C9.60083 15.7163 10.3728 15.7163 10.7898 15.2156C11.4533 14.4189 11.9622 13.4889 12.2705 12.4715C11.5478 12.6905 10.7809 12.8083 9.98655 12.8083C9.19222 12.8083 8.42559 12.6905 7.70281 12.4715C8.0112 13.4887 8.52003 14.4189 9.18355 15.2156H9.18379Z" fill="white"/>
<path d="M9.98571 7.88845C9.86994 7.88845 9.7761 7.79461 9.7761 7.67884C9.7761 7.56308 9.86994 7.46924 9.98571 7.46924C10.1015 7.46924 10.1953 7.56308 10.1953 7.67884C10.1953 7.79461 10.1015 7.88845 9.98571 7.88845Z" fill="white"/>
<path d="M9.44528 11.2168L9.4754 11.6264L9.97581 11.8757L10.4798 11.6244L10.5099 11.2168L10.6328 11.7536L9.97581 12.0808L9.32265 11.7536L9.44528 11.2168Z" fill="white"/>
</svg>
