<?xml version="1.0" encoding="UTF-8"?><svg id="Layer_1" xmlns="http://www.w3.org/2000/svg" viewBox="0 0 20 20"><defs><style>.cls-1{fill:#fff;}</style></defs><path class="cls-1" d="M8.15,2.96s0-.02,.01-.02c.01,0,.03-.01,.04-.01,.05,0,.09,0,.14-.03,0-.06-.06-.07-.11-.11,.07,.01,.13,.03,.16,.08,.03,.04,.07,.07,.11,.09,.06,.02,.11,.05,.17,.07,.08,.03,.17,.06,.25,.09,.05,.02,.09,.02,.14,.03,.04,0,.08,0,.13,0,.02,0,.05,0,.07,0,.01-.07,.02-.14,.02-.22,0-.1-.02-.19-.04-.28,0-.07-.04-.13-.07-.18-.05-.08-.1-.16-.15-.24-.03-.05-.07-.09-.11-.13-.18-.18-.37-.35-.57-.51,0,0-.02-.02-.04-.03,.02,0,.03,0,.04,.01,.12,.06,.23,.12,.35,.19,.02,.01,.04,.03,.06,.05,.13,.14,.25,.27,.37,.41,0,0,.01,.01,.02,.02,.1,.09,.18,.18,.27,.28,.04,.04,.08,.08,.12,.12,.03,.03,.06,.05,.1,.07,.04,.02,.09,.05,.13,.07,.03,.01,.05,.02,.08,.03,.01,0,.01,0,.05,0,0,0,0,0,0-.01,0-.02-.01-.04-.02-.05,0,0,.01,0,.02-.02-.02-.03-.05-.05-.08-.06-.05-.02-.08-.06-.12-.09,.02-.01,.04,0,.05,0,.02,.03,.06,.05,.1,.05,.04,0,.07,.03,.09,.06,0-.03,0-.04-.02-.05,0-.02-.02-.03-.04-.04-.06-.06-.1-.13-.14-.21-.01-.03-.02-.06-.05-.07,0-.01,0-.03,0-.04,0-.01,0-.02,0-.04,.01,0,.02,0,.03,.01,.02,.01,.03,.03,.05,.04,.06,.06,.13,.12,.21,.16,.03,.01,.05,.03,.07,.04,.03,.02,.03,.02,.05-.02,0,0,0,0,0,0,.02,.02,.03,.04,.05,.07,0-.02,.01-.03,0-.03,0-.04-.02-.07-.03-.11,0-.02,0-.04,.01-.05,.02,.02,.04,.05,.04,.08,.02,.08,.02,.09,.07,.14,.02,0,.03,0,.05-.01,0-.02,0-.04,0-.06,.01-.05,.03-.09,.07-.13,.14-.13,.31-.21,.5-.21,.05,0,.09-.02,.12-.05,.03-.03,.05-.07,.08-.1,0,0,.02-.01,.03-.02,0,0,0,0,0,0,0,0,0,.01,0,.01-.05,.09-.1,.16-.2,.21-.07,.03-.15,.06-.22,.09-.05,.02-.09,.05-.12,.1,0,0,0,.02,0,.03,0,.01,.02,.01,.04,0,.02,0,.03-.01,.05-.02,.02-.01,.05-.02,.07-.03,0,0,.02,0,.03,0-.02,.01-.05,.03-.07,.04-.06,.04-.09,.09-.1,.16,0,.05,0,.09,0,.15,.01,0,.02-.01,.03-.02,.03-.02,.06-.05,.09-.07,.03-.02,.06-.03,.1-.01,0,0,0,.01,0,.01-.04,0-.07,.03-.1,.07-.03,.04-.06,.08-.1,.12,.01,.04,.01,.09,.05,.13,0-.01,.01-.03,.03-.05,.02,.05,0,.09,.04,.14v-.11s.03,.08,.03,.12c.04,.01,.06,.04,.08,.07,.04,.05,.08,.1,.12,.14,.03,.04,.06,.04,.1,0,.07-.06,.14-.13,.21-.19,.04-.04,.07-.08,.1-.13,.05-.11,.1-.22,.14-.33,.03-.08,.03-.08,.02-.16,.02,0,.03,.02,.03,.04,0,.01,.01,.03,.02,.05,.01,0,.02-.01,.03-.02,.03-.03,.05-.07,.08-.1,.03-.03,.03-.07,.02-.11-.01-.04-.03-.07-.05-.1-.03-.05-.05-.11-.08-.16,0-.02-.02-.04-.02-.06,0,.01,.02,.02,.03,.04,.04,.08,.09,.15,.13,.23,.01,.02,.03,.05,.04,.08,.01,.05,0,.09-.03,.13,0,0,0,.01-.01,.02-.12,.12-.18,.27-.25,.42,0,.02-.02,.04-.02,.07,0,.04,.01,.07,.05,.06,.04,0,.07-.02,.11-.03,.03-.02,.06-.04,.09-.07,.14-.14,.26-.29,.38-.45,.02-.03,.03-.06,.04-.09,.01-.04,0-.05-.03-.09,.02,0,.04,0,.05,.02,.01,.01,.02,.03,.02,.04,0,.04,0,.08-.03,.12-.04,.08-.09,.16-.16,.23-.01,.01-.02,.03-.04,.04,.02,.07,.02,.13,0,.19-.02,.06-.06,.1-.13,.11-.08,.02-.17,.03-.25,.04-.06,0-.12,.02-.17,.03-.04,0-.08,.03-.11,.05-.04,.04-.09,.08-.13,.12t.06,.06s.06-.04,.07-.08c0-.02,.02-.04,.03-.06,0,0,.02,0,.03-.02,0,.02,0,.04,0,.05,0,.04-.01,.09-.02,.13,0,.04-.01,.08-.01,.13,0,.14,.01,.11-.06,.25,0,0,0,.01-.01,.02,.01,.04,.04,.08,.08,.11,.05,.03,.09,.06,.15,.08,.03,0,.04,.03,.04,.06,0,.02,0,.04,0,.06,.02,0,.03,.01,.05,.02,.09,.01,.17,.02,.26,.03,.01,0,.02,0,.04,0,.03,0,.07,.01,.12,.02-.08,.01-.15,0-.22-.01-.03,0-.06,0-.08,0-.02,0-.04,0-.06,0-.01,0-.03,0-.04,0-.05,0-.06,0-.08,.06,0,.02,0,.03-.03,.04-.02,0-.03,0-.04-.03,0-.02-.02-.04-.03-.06-.02-.03-.06-.03-.07,0,0,.03-.02,.06-.02,.09,0,.05-.02,.1-.05,.13-.01,.01-.02,.03-.02,.04,0,.05-.03,.09-.05,.13-.02,.05-.05,.09-.07,.14-.02,.03-.02,.06,0,.09,.05,.07,.1,.13,.17,.17,.03,.02,.07,.04,.11,.04,.01,0,.02,0,.04,.01-.04,.04-.09,.03-.13,.02-.08-.02-.15-.06-.21-.11-.01-.01-.03-.02-.05-.04,0,.03-.02,.05-.02,.07-.02,.06-.04,.13-.05,.19-.01,.05-.04,.1-.07,.14,0,.01-.02,.02-.03,.04,.02,0,.03,.02,.05,.02,.14,.06,.29,.13,.44,.19,.04,.02,.07,.04,.1,.06,.08,.06,.16,.13,.24,.19,.03,.02,.05,.05,.06,.08,.05,.11,.11,.21,.16,.32,.02,.04,.04,.08,.07,.12,.01,.02,.02,.04,.03,.06,0,.02,.02,.05,.03,.07,.05,.11,.07,.23,.06,.35,0,.05,0,.1,0,.16,0,.09,0,.18,.02,.28,0,.04,.02,.08,.04,.11,.08,.17,.18,.34,.28,.5,.01,.02,.03,.05,.05,.07,.04,.05,.07,.1,.11,.15,.1,.14,.18,.28,.24,.43,0,.01,.01,.03,.02,.04,.03,.1,.09,.18,.15,.26,.02,.03,.04,.07,.07,.1,0,.04-.01,.07-.02,.11-.01,.06-.02,.12-.04,.17,0,.02,0,.04,0,.05,.03,.07,.07,.14,.11,.2,.08,.12,.18,.23,.28,.34,.03,.03,.05,.06,.07,.1,.1,.16,.18,.32,.25,.5,.02,.04,.03,.08,.03,.13,0,.08,0,.17,0,.26,0,.03,0,.06,0,.08,0,.04,0,.08,0,.12,0,.04-.02,.06-.04,.06-.03,0-.05-.02-.05-.05,0-.05-.01-.11-.02-.16,0-.04,0-.09-.01-.13,0,0,0-.02,0-.03-.02,0-.02,0-.03,.01-.04,.08-.09,.17-.12,.26,0,.02-.01,.03-.02,.05,0,.02-.04,.02-.05,0-.02-.02-.03-.03-.02-.06,.02-.06,.03-.12,.05-.18-.03,0-.03,.02-.04,.04-.02,.03-.04,.05-.07,.08-.02,.02-.03,.02-.04,.01-.01,0-.02-.02,0-.04,.03-.06,.06-.11,.09-.17,0,0,.01-.02,.02-.02,.07-.06,.06-.15,.05-.23,0-.02-.01-.04-.03-.05-.02-.02-.05-.04-.07-.06-.06-.04-.12-.08-.18-.12,0,0-.01,0-.02,0-.02,.01,0,.03,0,.05,0,.06,0,.11,.01,.17,0,.05-.04,.08-.08,.06-.02-.01-.04-.03-.05-.05-.01-.05-.03-.1-.04-.14,0-.04-.02-.08-.04-.12,0-.02-.02-.04-.02-.07,0-.08-.04-.15-.06-.23,0-.01-.01-.02-.02-.03-.08-.07-.14-.16-.2-.24-.01-.02-.03-.04-.05-.06-.07,0-.15,0-.22,.01-.04,0-.07,0-.1-.02-.04-.03-.09-.06-.13-.08-.02-.01-.04-.03-.05-.06,0,0,0-.01,0-.02-.06-.15-.12-.29-.2-.43-.03-.06-.06-.12-.1-.17-.1-.15-.2-.31-.29-.47-.02-.03-.03-.06-.03-.1,0-.02,0-.05-.01-.07-.06-.17-.12-.34-.19-.51,0-.01,0-.02-.02-.03,0,.01,0,.02,0,.03,0,.11-.02,.23-.03,.34-.02,.13-.04,.26-.06,.39,0,.04,0,.08,0,.13,0,.02,0,.05,0,.07,0,.13,.02,.26,.04,.39,.02,.12,.03,.23,.05,.35,.01,.09,.03,.17,.04,.26,0,.05,.01,.11,0,.16-.01,.04,0,.08,0,.11,.02,.14,.05,.27,.07,.41,0,.03,.02,.07,.03,.1,.06,.2,.13,.38,.22,.57,.03,.06,.04,.12,.06,.18,.07,.43,.14,.85,.21,1.28,.04,.23,.07,.46,.11,.69,.01,.09,.02,.18,0,.28,0,.07-.02,.14-.02,.21,0,.03,0,.07,0,.1,0,.11,0,.21,0,.32,0,.03,0,.06,.01,.08,.03,.12,.07,.24,.11,.35,.01,.04,.03,.07,.06,.08,.03,.02,.05,.05,.06,.08,.05,.16,.1,.31,.16,.46,.01,.04,.02,.07,.02,.11,0,.38-.01,.76-.02,1.14,0,.13-.01,.25-.02,.38,0,.08,0,.16,0,.24,.01,.13,.02,.26,.03,.39,0,.04,.01,.08,.02,.12,.04,.13,.07,.25,.11,.38,.02,.05,.03,.11,.03,.17,0,.08,.02,.16,.03,.24,0,.03,0,.06-.02,.08-.01,.02-.02,.03-.03,.05-.01,.02-.02,.03-.04,.04,0,0,0,0,0,0-.08,.06-.17,.07-.27,.06-.19,0-.38-.02-.57-.03-.06,0-.12,0-.18-.01-.02-.03-.04-.07-.04-.1,0-.03,0-.06,0-.08,0-.06,0-.13,0-.19,0-.03,0-.06,.03-.08,.06-.06,.07-.13,.09-.21,.01-.07,.02-.13,0-.2-.03-.11-.04-.22-.04-.33,0-.08-.01-.16-.02-.24,0-.02,0-.05-.02-.07-.02-.06-.04-.12-.07-.18-.09-.23-.15-.46-.21-.7-.02-.06-.03-.12-.05-.18-.01-.05-.03-.1-.05-.15-.04-.1-.08-.21-.12-.31-.01-.03-.02-.06-.03-.1-.02-.12-.03-.25-.05-.37,0-.07,0-.14,0-.21,0,0,0,0,0,0,.03-.04,.02-.09,.01-.14-.01-.1-.02-.21-.03-.31,0-.03,0-.05,0-.08,.03-.13,.05-.26,.08-.39,0-.03,0-.06,0-.08,0-.13,0-.26,0-.4,0-.02,0-.03,0-.05-.03-.08-.05-.15-.08-.23-.19-.41-.38-.81-.57-1.21-.01-.02-.02-.05-.04-.07-.11-.13-.23-.26-.34-.39,0,0-.01,0-.02-.02,0,0-.02,.02-.03,.03-.1,.13-.19,.26-.29,.39-.02,.02-.03,.04-.04,.07-.23,.46-.45,.92-.68,1.38-.02,.03-.03,.06-.04,.1-.02,.07-.04,.14-.07,.22,0,.03-.01,.05,0,.08,.01,.08,.02,.16,.03,.24,0,.03,.02,.05,.03,.08,.04,.07,.07,.14,.11,.21,.02,.05,.04,.09,.07,.15,.07,.04,.11,.12,.16,.19,0,.01,0,.03,.01,.04,0,.02,0,.03,0,.05,0,.14,0,.29,0,.43,0,.03,0,.07,0,.1-.03,.2-.09,.4-.15,.59-.02,.06-.03,.12-.05,.18-.01,.03-.01,.06-.01,.1,0,.1,.02,.2,.04,.3,.03,.12,.04,.25,.05,.37,0,.05,0,.11,0,.16,0,.04,0,.07,0,.11,0,.05,0,.09,0,.14,0,.04-.02,.07-.06,.09-.05,.02-.11,.04-.17,.06-.02,0-.05,0-.07,0-.03,0-.06-.02-.1-.03-.05-.02-.1,0-.14,.04-.07,.07-.13,.13-.2,.2-.03,.03-.06,.05-.1,.07-.09,.05-.18,.08-.29,.1-.16,.03-.16,.03-.32,.01-.1-.01-.19-.03-.29-.05-.05-.01-.1-.03-.15-.05,0-.04,0-.08,.02-.11,.02-.02,.02-.04,.02-.06,0-.05,0-.1,0-.16,.02-.01,.03-.02,.04-.03,.02-.01,.05-.03,.07-.04,.12-.05,.21-.13,.3-.22,.02-.02,.03-.03,.04-.05,.07-.1,.13-.2,.2-.3,.04-.06,.06-.13,.06-.19,0-.1,0-.2,0-.31,0-.06-.01-.13-.02-.19,0-.07-.02-.14-.03-.21,0-.06-.02-.12-.04-.18-.01-.04-.02-.08-.03-.12-.03-.08-.03-.17-.02-.25,0-.08,.01-.16,.01-.24,0-.03,0-.06,.02-.08,0-.01,0-.02,.01-.03,.02-.06,.04-.11,.08-.16-.01-.06-.03-.12-.04-.18-.01-.06-.03-.11-.05-.17-.05-.17-.09-.34-.11-.51-.01-.07-.02-.14-.03-.2-.01-.07-.02-.15,0-.22,0-.08,.02-.17,.03-.25,0-.05,.02-.09,.03-.14,.12-.52,.25-1.05,.37-1.57,0-.04,.02-.08,.04-.12,.02-.05,.04-.1,.07-.15,.09-.18,.16-.38,.23-.57,.06-.17,.09-.34,.13-.51,.01-.05,.01-.09,.01-.14-.02-.02-.04-.03-.07-.04,0-.05,.01-.1,.02-.14,.04-.19,.06-.37,.08-.56,0-.07,.02-.14,.04-.21,.03-.13,.03-.27,.05-.41,0-.01,0-.02,0-.04,0-.13-.01-.26-.04-.39-.02-.1-.04-.2-.06-.31,0-.03,0-.06,0-.09,0-.1,0-.19,0-.29,0-.03,0-.07,.02-.1,.03-.08,.05-.15,.08-.23,0-.01,0-.02,.01-.05-.02,.02-.03,.03-.04,.04-.09,.12-.18,.23-.27,.35-.02,.02-.03,.04-.04,.07-.07,.12-.13,.24-.19,.35-.05,.1-.09,.2-.1,.32,0,.07-.02,.14-.05,.21-.06,.15-.1,.3-.14,.45,0,.04-.01,.07,0,.11,0,.08,.01,.16,.02,.24,0,.03,0,.06,0,.08,0,.03,0,.07,0,.1,0,.02,0,.05,0,.07-.03,.08-.04,.08-.12,.1-.03,0-.07,.02-.1,.02-.02,0-.05,0-.07,0-.03,0-.05,0-.08-.01,0,.02-.02,.03-.02,.04-.06,.14-.11,.28-.17,.42-.02,.06-.01,.1,.03,.14,0,0,0,0,0,0,.07,.05,.11,.12,.13,.21,0,0,0,0,0,.01,.04,.08,.06,.16,.08,.25,.02,.09,.05,.17,.07,.25,0,.03,.01,.05,0,.08,0,.02-.03,.05-.05,.05-.02,0-.05,0-.06-.03-.03-.06-.06-.12-.09-.18-.03-.05-.06-.11-.09-.16,0,0-.02-.01-.03-.02-.03,.03-.05,.06-.04,.09,0,.07,0,.13-.01,.2,0,.01,0,.02,0,.04,0,.06,.01,.13,.02,.19,0,.02,0,.03,.01,.05,.01,.05,.04,.08,.08,.1,.03,0,.05,.02,.06,.06,.02,.01,.04,.03,.06,.04,.03,.01,.04,.03,.04,.07,0,0-.02,.02-.04,.03,0,0,0,.01,0,.02,.03,.03,.06,.06,.09,.1,0,.01,0,.02,0,.04-.01,.03-.05,.04-.08,.02-.02-.01-.03-.02-.05-.04,0,.02-.02,.03-.03,.05-.03,.04-.07,.04-.09,0-.03-.06-.06-.13-.09-.19-.01-.02-.03-.04-.05-.06-.05-.04-.1-.09-.15-.13-.02-.02-.04-.04-.05-.06-.03-.06-.06-.11-.09-.17,0-.02-.02-.04-.02-.06-.02-.13-.05-.26-.07-.38,0-.04,0-.09-.01-.13,0-.02,0-.04,0-.06,0-.11,0-.22,.03-.32,.04-.2,.08-.41,.12-.61,0-.04,.01-.07,.02-.11-.02-.03-.04-.06-.06-.09,0,0-.01-.02-.02-.03,0-.05,.02-.1,.03-.15,.03-.11,.04-.21,.05-.32,.02-.12,.04-.24,.06-.36,.02-.09,.06-.19,.09-.28,.07-.2,.15-.4,.24-.6,.07-.15,.14-.3,.2-.44,.01-.03,.02-.06,.03-.09,.05-.19,.1-.39,.15-.58,0-.04,.02-.07,.04-.1,.04-.07,.09-.15,.13-.22,.01-.02,.03-.04,.04-.06,.09-.09,.19-.17,.28-.26,.02-.02,.05-.04,.08-.06,.27-.14,.56-.26,.84-.38,.03-.01,.05-.02,.08-.01,.03,0,.06,0,.08,0,0,0,0,0,.02,0,.04-.05,.09-.11,.13-.17,0-.01,.01-.03,.01-.05,.01-.15,.02-.29,.03-.44,0-.08,0-.16-.02-.25,0-.05-.03-.08-.08-.09-.05-.02-.11-.05-.17-.06-.04,0-.07-.03-.11-.06,.03,0,.05,0,.07,.01,.01-.01,0-.02,0-.03-.04-.04-.08-.07-.13-.07-.02,0-.04,0-.05-.03,.03,0,.06,.01,.08,.01,.04,0,.08,.01,.12,.02,.02,0,.04,0,.06-.02,.04-.05,.07-.1,.06-.17,0,0,0-.01,0-.02,0-.07-.02-.12-.08-.16-.08-.06-.15-.12-.23-.18-.03-.02-.05-.04-.08-.05-.07-.04-.15-.07-.22-.11-.03-.02-.07-.04-.09-.06-.09-.09-.19-.17-.28-.26-.02-.02-.05-.04-.08-.04-.01,0-.03,0-.04,0-.03-.01-.05,0-.07,.01h0Zm2.39-.14s0-.02,0-.03c0-.07,0-.15,0-.22,0-.04,0-.07,0-.11,0-.07,.03-.12,.09-.16,.03-.02,.05-.03,.08-.04,.07-.03,.13-.05,.2-.07,.01,0,.03,0,.03-.03-.04,0-.08,0-.11,.02-.13,.03-.26,.08-.35,.19,0,0-.02,.02-.02,.03-.04,.04-.04,.08-.04,.13,.01,.1,.06,.18,.09,.27,0,0,.01,.02,.02,.02,0,0,.01,0,.02,0Zm.78,1.16c-.03,.09,0,.09,.05,.12,.02,.01,.04,.01,.06,.02,.02,0,.04,0,.06-.03,0-.04-.04-.05-.06-.07-.03-.02-.06-.05-.1-.04Zm.59-1.14s-.01,0-.02,.01c-.03,.03-.05,.05-.08,.08-.01,.02-.03,.04-.04,.06,0,0,0,.02,0,.03,.1,0,.15-.07,.13-.18Zm-.42,1.36s-.01-.01-.02-.02c0,0,0,0-.01,0,0,0,0,.01,0,.02,0,0,.01,0,.02,0Z"/><path class="cls-1" d="M9.22,2.87s-.02-.02-.03-.03c-.04-.07-.13-.09-.17-.16,.07,.01,.11,.03,.13,.07,.03,.04,.05,.07,.08,.11,0,0,0,0,0,0Z"/><path class="cls-1" d="M10.71,2.82s.02,.04,.01,.06c0-.02,0-.04-.01-.06Z"/><path class="cls-1" d="M11.15,1.98s0,0,0-.01c0,0,0,0,0,0,0,0,0,0,0,0,0,0,0,0,0,0Z"/><polygon class="cls-1" points="9.53 2.2 9.53 2.2 9.53 2.19 9.53 2.2"/><path class="cls-1" d="M8.15,2.96s-.01,0-.02,0c0,0,0,0,0,0,0,0,.01,0,.02,0,0,0,0,0,0,0Z"/></svg>